# xmcd
#
# Track frame offsets: 
#        150
#        17715
#        35159
#        54547
#        76050
#        100438
#        120346
#        149583
#        164127
#        184684
#        198259
#        214724
#        234073
#        254031
#        271862
#        292643
#
# Disc length: 4202 seconds
#
# Revision: 2
# Processed by: cddbd v1.5.2PL0 Copyright (c) Steve Scherf et al.
# Submitted via: ExactAudioCopyFreeDBPlugin 1.0
#
DISCID=e0106810
DTITLE=Chip Taylor and The New Ukrainians - F**k All The Perfect People
DYEAR=2012
DGENRE=Blues
TTITLE0=Be Kind
TTITLE1=The Dutchman Blues
TTITLE2=F**k All The Perfect People
TTITLE3=Me And Rohillo
TTITLE4=Passport Blues
TTITLE5=New Things
TTITLE6=Norrtälje Prison
TTITLE7=Phoned In Dead
TTITLE8=Outside The Human Condition
TTITLE9=Too Dynamic
TTITLE10=Weaker Moments
TTITLE11=I Know Dark
TTITLE12=Thoughts Of A Child
TTITLE13=The Baby
TTITLE14=Nothin´ [I Suppose]
TTITLE15=Bonus: The Darkest Day (feat. Paal Flaata and Ida Jenshus)
EXTD=
EXTT0=
EXTT1=
EXTT2=
EXTT3=
EXTT4=
EXTT5=
EXTT6=
EXTT7=
EXTT8=
EXTT9=
EXTT10=
EXTT11=
EXTT12=
EXTT13=
EXTT14=
EXTT15=
PLAYORDER=
